<svg xmlns="http://www.w3.org/2000/svg" xmlns:xlink="http://www.w3.org/1999/xlink" viewBox="0 0 115 16"><g id="ss11361241886_1"><path d="M 0 0 L 115 0 L 115 16 L 0 16 Z" fill="transparent"></path><path d="M 0 0 L 17.337 0 L 17.337 16 L 0 16 Z" fill="rgb(255,255,255)"></path><path d="M 8.479 10.038 L 4.013 6.113 L 4.013 11.774 M 8.631 10.038 L 13.097 6.113 L 13.097 11.774" fill="transparent" stroke-width="1.97" stroke="rgb(9,9,9)" stroke-linecap="square" stroke-miterlimit="10"></path><path d="M 23.184 13.509 L 23.184 3.423 L 26.63 3.423 C 27.321 3.423 27.92 3.545 28.427 3.789 C 28.938 4.03 29.332 4.378 29.61 4.835 C 29.892 5.287 30.033 5.833 30.033 6.473 C 30.033 6.978 29.943 7.435 29.764 7.842 C 29.584 8.246 29.326 8.586 28.991 8.863 C 28.656 9.141 28.249 9.346 27.771 9.481 L 31.082 13.509 L 28.562 13.509 L 25.643 9.707 L 25.17 9.707 L 25.17 13.509 Z M 25.17 8.056 L 26.017 8.056 C 26.43 8.056 26.779 7.997 27.065 7.879 C 27.352 7.761 27.57 7.588 27.722 7.36 C 27.877 7.127 27.955 6.85 27.955 6.528 C 27.955 6.039 27.785 5.664 27.446 5.403 C 27.11 5.138 26.634 5.006 26.017 5.006 L 25.17 5.006 Z M 32.442 13.509 L 32.442 3.423 L 38.071 3.423 L 38.071 5.159 L 34.429 5.159 L 34.429 7.586 L 37.924 7.586 L 37.924 9.322 L 34.429 9.322 L 34.429 11.773 L 38.071 11.773 L 38.071 13.509 Z M 39.311 13.509 L 43.377 3.423 L 45.223 3.423 L 49.282 13.509 L 47.142 13.509 L 46.284 11.211 L 42.31 11.211 L 41.451 13.509 Z M 42.991 9.475 L 45.609 9.475 L 44.297 6.094 Z M 55.335 13.705 C 54.571 13.705 53.853 13.571 53.183 13.302 C 52.512 13.033 51.922 12.66 51.411 12.183 C 50.9 11.702 50.501 11.146 50.215 10.514 C 49.929 9.882 49.786 9.204 49.786 8.478 C 49.786 7.749 49.929 7.068 50.215 6.436 C 50.505 5.801 50.904 5.244 51.411 4.768 C 51.922 4.287 52.51 3.912 53.177 3.643 C 53.847 3.374 54.563 3.239 55.323 3.239 C 55.945 3.239 56.535 3.327 57.095 3.502 C 57.66 3.677 58.142 3.908 58.543 4.193 L 57.684 5.874 C 57.41 5.658 57.077 5.489 56.684 5.367 C 56.292 5.244 55.881 5.183 55.452 5.183 C 54.949 5.183 54.483 5.267 54.054 5.434 C 53.629 5.601 53.257 5.833 52.938 6.131 C 52.623 6.428 52.378 6.777 52.202 7.176 C 52.026 7.576 51.938 8.008 51.938 8.472 C 51.938 8.937 52.026 9.369 52.202 9.768 C 52.378 10.168 52.623 10.516 52.938 10.814 C 53.257 11.111 53.629 11.343 54.054 11.51 C 54.483 11.678 54.949 11.761 55.452 11.761 C 55.881 11.761 56.292 11.7 56.684 11.578 C 57.077 11.455 57.41 11.286 57.684 11.07 L 58.543 12.751 C 58.158 13.029 57.686 13.257 57.126 13.436 C 56.566 13.615 55.969 13.705 55.335 13.705 Z M 60.157 13.509 L 60.157 3.423 L 62.144 3.423 L 62.144 7.586 L 65.928 7.586 L 65.928 3.423 L 67.908 3.423 L 67.908 13.509 L 65.928 13.509 L 65.928 9.322 L 62.144 9.322 L 62.144 13.509 Z M 70.673 13.509 L 70.673 3.423 L 72.66 3.423 L 72.66 13.509 Z M 75.428 13.509 L 75.428 3.423 L 77.415 3.423 L 81.775 10.208 L 81.775 3.423 L 83.762 3.423 L 83.762 13.509 L 81.775 13.509 L 77.415 6.724 L 77.415 13.509 Z M 85.992 13.509 L 85.992 3.423 L 88.892 3.423 C 89.865 3.423 90.627 3.635 91.179 4.058 C 91.731 4.482 92.008 5.116 92.008 5.96 C 92.008 7.007 91.574 7.747 90.708 8.179 C 91.415 8.289 91.956 8.56 92.332 8.992 C 92.712 9.42 92.902 9.982 92.902 10.679 C 92.902 11.266 92.77 11.771 92.504 12.195 C 92.238 12.619 91.86 12.945 91.369 13.173 C 90.879 13.397 90.299 13.509 89.628 13.509 Z M 87.972 7.506 L 88.433 7.506 C 88.968 7.506 89.379 7.396 89.665 7.176 C 89.951 6.952 90.094 6.632 90.094 6.216 C 90.094 5.797 89.955 5.483 89.677 5.275 C 89.399 5.063 88.985 4.957 88.433 4.957 L 87.972 4.957 Z M 87.972 11.969 L 88.954 11.969 C 89.575 11.969 90.041 11.855 90.352 11.627 C 90.667 11.398 90.824 11.062 90.824 10.618 C 90.824 10.166 90.662 9.819 90.34 9.579 C 90.02 9.334 89.558 9.212 88.954 9.212 L 87.972 9.212 Z M 99.006 13.705 C 98.298 13.705 97.636 13.571 97.019 13.302 C 96.402 13.033 95.86 12.66 95.394 12.183 C 94.928 11.702 94.562 11.146 94.296 10.514 C 94.034 9.878 93.903 9.198 93.903 8.472 C 93.903 7.747 94.034 7.068 94.296 6.436 C 94.562 5.801 94.928 5.244 95.394 4.768 C 95.86 4.287 96.402 3.912 97.019 3.643 C 97.636 3.374 98.298 3.239 99.006 3.239 C 99.713 3.239 100.376 3.374 100.993 3.643 C 101.61 3.912 102.152 4.287 102.618 4.768 C 103.084 5.244 103.448 5.801 103.709 6.436 C 103.975 7.068 104.108 7.747 104.108 8.472 C 104.108 9.198 103.975 9.878 103.709 10.514 C 103.448 11.146 103.084 11.702 102.618 12.183 C 102.152 12.66 101.61 13.033 100.993 13.302 C 100.376 13.571 99.713 13.705 99.006 13.705 Z M 99 11.798 C 99.433 11.798 99.83 11.716 100.189 11.553 C 100.549 11.39 100.862 11.16 101.127 10.862 C 101.393 10.565 101.6 10.214 101.747 9.811 C 101.894 9.403 101.968 8.957 101.968 8.472 C 101.968 7.987 101.894 7.543 101.747 7.139 C 101.6 6.732 101.393 6.379 101.127 6.082 C 100.862 5.784 100.549 5.554 100.189 5.391 C 99.83 5.228 99.433 5.147 99 5.147 C 98.574 5.147 98.18 5.228 97.816 5.391 C 97.456 5.554 97.144 5.784 96.878 6.082 C 96.612 6.379 96.405 6.732 96.259 7.139 C 96.115 7.543 96.044 7.987 96.044 8.472 C 96.044 8.957 96.115 9.403 96.259 9.811 C 96.405 10.214 96.612 10.565 96.878 10.862 C 97.144 11.16 97.456 11.39 97.816 11.553 C 98.18 11.716 98.574 11.798 99 11.798 Z M 104.801 13.509 L 108.64 8.075 L 105.427 3.423 L 107.793 3.423 L 109.86 6.43 L 111.927 3.423 L 114.294 3.423 L 111.081 8.075 L 114.92 13.509 L 112.46 13.509 L 109.86 9.793 L 107.26 13.509 Z" fill="rgb(255,255,255)"></path></g></svg>